<svg preserveAspectRatio="none" aria-hidden="true" focusable="false" data-prefix="fas" data-icon="ppwork-outlined-star-16" class="svg-inline--fa fa-w-16" role="img" xmlns="http://www.w3.org/2000/svg" viewBox="0 0 110.451 110.451" fill="transparent" stroke="#000">
    <path d="M64.142,0l5.737,13.958L83.805,8.145l-.041,15.091,15.091-.041L93.042,37.121,107,42.858,96.3,53.5,107,64.142,93.042,69.879l5.813,13.926-15.091-.041.041,15.091L69.879,93.042,64.142,107,53.5,96.3,42.858,107,37.121,93.042,23.195,98.855l.041-15.091-15.091.041,5.813-13.926L0,64.142,10.7,53.5,0,42.858l13.958-5.737L8.145,23.195l15.091.041L23.195,8.145l13.926,5.813L42.858,0,53.5,10.7Z" transform="translate(-8, 13.417) rotate(-11)"/>
</svg>
