<svg preserveAspectRatio="none" aria-hidden="true" focusable="false" data-prefix="fas" data-icon="ppwork-outlined-brackets-curly" class="svg-inline--fa fa-w-16" role="img" xmlns="http://www.w3.org/2000/svg" viewBox="0 0 144.664 85.083" fill="transparent" stroke="#000">
  <g transform="translate(-1001.092 -749.022)">
    <path d="M1303.7,923.524s-7.921-.185-7.921,6.939-.149,21.208-.149,27.573c0,7.349-7.472,7.382-7.472,7.382s7.472.985,7.472,7.094v27.242c0,8.021,8.118,7.849,8.118,7.849" transform="translate(-287 -174)"/>
    <path d="M1303.7,923.524s-7.921-.185-7.921,6.939-.149,21.208-.149,27.573c0,7.349-7.472,7.382-7.472,7.382s7.472.985,7.472,7.094v27.242c0,8.021,8.118,7.849,8.118,7.849" transform="translate(2433.849 1757.127) rotate(180)"/>
  </g>
</svg>
