<svg preserveAspectRatio="none" aria-hidden="true" focusable="false" data-prefix="fas" data-icon="ppwork-circle-3-4" class="svg-inline--fa fa-w-16" role="img" xmlns="http://www.w3.org/2000/svg" viewBox="0 0 86 86" fill="#000" stroke="#222">
  <path d="M-244-88a42.731,42.731,0,0,1-16.738-3.379,42.857,42.857,0,0,1-13.668-9.215,42.857,42.857,0,0,1-9.215-13.668A42.731,42.731,0,0,1-287-131a42.728,42.728,0,0,1,3.379-16.737,42.857,42.857,0,0,1,9.215-13.668,42.857,42.857,0,0,1,13.668-9.215A42.731,42.731,0,0,1-244-174v43h43a42.729,42.729,0,0,1-3.379,16.738,42.857,42.857,0,0,1-9.215,13.668,42.857,42.857,0,0,1-13.668,9.215A42.731,42.731,0,0,1-244-88Z" transform="translate(287 174)"/>
</svg>
